<?xml version="1.0" encoding="UTF-8"?>
<svg width="180" height="180" viewBox="0 0 180 180" fill="none" xmlns="http://www.w3.org/2000/svg">
  <rect width="180" height="180" rx="40" fill="#007AFF" fill-opacity="0.1"/>
  <path d="M90 45C70.67 45 55 60.67 55 80C55 94.33 63.33 106.67 75 111.67V125C75 128.33 77.67 131 81 131H99C102.33 131 105 128.33 105 125V111.67C116.67 106.67 125 94.33 125 80C125 60.67 109.33 45 90 45ZM97 107.67V123H83V107.67C72.33 104.33 65 93 65 80C65 66.67 76.67 55 90 55C103.33 55 115 66.67 115 80C115 93 107.67 104.33 97 107.67Z" fill="#007AFF"/>
  <path d="M85 65V95H95V65H85ZM85 105V115H95V105H85Z" fill="#007AFF"/>
</svg> 